{
  "asset": {
    "version": "2.0",
    "generator": "THREE.GLTFExporter"
  },
  "scenes": [
    {
      "name": "Scene",
      "nodes": [
        11
      ]
    }
  ],
  "scene": 0,
  "nodes": [
    {
      "translation": [
        -0.1799999475479126,
        1.7599999904632568,
        13.380657196044922
      ],
      "scale": [
        2.8846614360809326,
        2.8846611976623535,
        2.8846611976623535
      ],
      "name": "Camera",
      "extras": {
        "name": "Camera"
      },
      "camera": 0
    },
    {
      "translation": [
        0.09999999403953552,
        -0.47999998927116394,
        0
      ],
      "scale": [
        2.8519060611724854,
        2.8519060611724854,
        2.8519060611724854
      ],
      "name": "Plane",
      "extras": {
        "name": "Plane"
      },
      "mesh": 0
    },
    {
      "rotation": [
        -0.11935219168663025,
        0.03880559653043747,
        0.0046685002744197845,
        0.9920823574066162
      ],
      "translation": [
        1.3573417663574219,
        2.730012893676758,
        9.164945602416992
      ],
      "name": "Area",
      "extras": {
        "name": "Area"
      }
    },
    {
      "translation": [
        0.037570178508758545,
        1.8399344682693481,
        -0.023471713066101074
      ],
      "name": "BezierCircle",
      "extras": {
        "name": "BezierCircle"
      }
    },
    {
      "translation": [
        0,
        0,
        -1
      ]
    },
    {
      "rotation": [
        -0.7071068286895752,
        0,
        0,
        0.7071068286895752
      ],
      "name": "Sun",
      "extras": {
        "name": "Sun"
      },
      "children": [
        4
      ],
      "extensions": {
        "KHR_lights_punctual": {
          "light": 0
        }
      }
    },
    {
      "rotation": [
        -0.7071068286895752,
        0,
        0,
        0.7071068286895752
      ],
      "name": "Point",
      "extras": {
        "name": "Point"
      },
      "extensions": {
        "KHR_lights_punctual": {
          "light": 1
        }
      }
    },
    {
      "translation": [
        0,
        0,
        -1
      ]
    },
    {
      "rotation": [
        -0.027395004406571388,
        -0.004968977067619562,
        0.9663448929786682,
        0.2557393014431
      ],
      "translation": [
        -0.2426731437444687,
        0.5316534042358398,
        10.39854907989502
      ],
      "name": "Spot",
      "extras": {
        "name": "Spot"
      },
      "children": [
        7
      ],
      "extensions": {
        "KHR_lights_punctual": {
          "light": 2
        }
      }
    },
    {
      "rotation": [
        0,
        -0.7132505178451538,
        0.7009092569351196,
        3.1177169290685924e-8
      ],
      "translation": [
        0,
        0.7693078517913818,
        -0.023471802473068237
      ],
      "scale": [
        0.6776741743087769,
        0.6643864512443542,
        0.6378110647201538
      ],
      "name": "Text001",
      "extras": {
        "name": "Text.001"
      },
      "mesh": 1
    },
    {
      "translation": [
        0,
        -0.37900108098983765,
        0
      ],
      "name": "Circle",
      "extras": {
        "name": "Circle"
      },
      "mesh": 2
    },
    {
      "name": "ilumination.glb",
      "children": [
        0,
        1,
        2,
        3,
        5,
        6,
        8,
        9,
        10
      ]
    }
  ],
  "cameras": [
    {
      "type": "perspective",
      "perspective": {
        "aspectRatio": 1.7777777777777777,
        "yfov": 0.39959652046304894,
        "zfar": 1000,
        "znear": 0.10000000149011612
      },
      "name": "PerspectiveCamera"
    }
  ],
  "bufferViews": [
    {
      "buffer": 0,
      "byteOffset": 0,
      "byteLength": 48,
      "target": 34962,
      "byteStride": 12
    },
    {
      "buffer": 0,
      "byteOffset": 48,
      "byteLength": 48,
      "target": 34962,
      "byteStride": 12
    },
    {
      "buffer": 0,
      "byteOffset": 96,
      "byteLength": 32,
      "target": 34962,
      "byteStride": 8
    },
    {
      "buffer": 0,
      "byteOffset": 128,
      "byteLength": 32,
      "target": 34962,
      "byteStride": 8
    },
    {
      "buffer": 0,
      "byteOffset": 160,
      "byteLength": 64,
      "target": 34962,
      "byteStride": 16
    },
    {
      "buffer": 0,
      "byteOffset": 224,
      "byteLength": 64,
      "target": 34962,
      "byteStride": 16
    },
    {
      "buffer": 0,
      "byteOffset": 288,
      "byteLength": 12,
      "target": 34963
    },
    {
      "buffer": 0,
      "byteOffset": 300,
      "byteLength": 52416,
      "target": 34962,
      "byteStride": 12
    },
    {
      "buffer": 0,
      "byteOffset": 52716,
      "byteLength": 52416,
      "target": 34962,
      "byteStride": 12
    },
    {
      "buffer": 0,
      "byteOffset": 105132,
      "byteLength": 34944,
      "target": 34962,
      "byteStride": 8
    },
    {
      "buffer": 0,
      "byteOffset": 140076,
      "byteLength": 34944,
      "target": 34962,
      "byteStride": 8
    },
    {
      "buffer": 0,
      "byteOffset": 175020,
      "byteLength": 69888,
      "target": 34962,
      "byteStride": 16
    },
    {
      "buffer": 0,
      "byteOffset": 244908,
      "byteLength": 69888,
      "target": 34962,
      "byteStride": 16
    },
    {
      "buffer": 0,
      "byteOffset": 314796,
      "byteLength": 13248,
      "target": 34963
    },
    {
      "buffer": 0,
      "byteOffset": 328044,
      "byteLength": 14568,
      "target": 34962,
      "byteStride": 12
    },
    {
      "buffer": 0,
      "byteOffset": 342612,
      "byteLength": 14568,
      "target": 34962,
      "byteStride": 12
    },
    {
      "buffer": 0,
      "byteOffset": 357180,
      "byteLength": 9712,
      "target": 34962,
      "byteStride": 8
    },
    {
      "buffer": 0,
      "byteOffset": 366892,
      "byteLength": 9712,
      "target": 34962,
      "byteStride": 8
    },
    {
      "buffer": 0,
      "byteOffset": 376604,
      "byteLength": 19424,
      "target": 34962,
      "byteStride": 16
    },
    {
      "buffer": 0,
      "byteOffset": 396028,
      "byteLength": 19424,
      "target": 34962,
      "byteStride": 16
    },
    {
      "buffer": 0,
      "byteOffset": 415452,
      "byteLength": 5616,
      "target": 34963
    },
    {
      "buffer": 0,
      "byteOffset": 421068,
      "byteLength": 1004
    },
    {
      "buffer": 0,
      "byteOffset": 422072,
      "byteLength": 4016
    }
  ],
  "buffers": [
    {
      "byteLength": 426088,
      "uri": "data:application/octet-stream;base64,"
    }
  ],
  "accessors": [
    {
      "bufferView": 0,
      "componentType": 5126,
      "count": 4,
      "max": [
        3.619999885559082,
        0,
        3.619999885559082
      ],
      "min": [
        -3.619999885559082,
        0,
        -3.619999885559082
      ],
      "type": "VEC3"
    },
    {
      "bufferView": 1,
      "componentType": 5126,
      "count": 4,
      "max": [
        0,
        1,
        0
      ],
      "min": [
        0,
        1,
        0
      ],
      "type": "VEC3"
    },
    {
      "bufferView": 2,
      "componentType": 5126,
      "count": 4,
      "max": [
        1,
        1
      ],
      "min": [
        0,
        0
      ],
      "type": "VEC2"
    },
    {
      "bufferView": 3,
      "componentType": 5126,
      "count": 4,
      "max": [
        0,
        0
      ],
      "min": [
        0,
        0
      ],
      "type": "VEC2"
    },
    {
      "bufferView": 4,
      "componentType": 5126,
      "count": 4,
      "max": [
        0,
        0,
        0,
        0
      ],
      "min": [
        0,
        0,
        0,
        0
      ],
      "type": "VEC4"
    },
    {
      "bufferView": 5,
      "componentType": 5126,
      "count": 4,
      "max": [
        1,
        1,
        1,
        1
      ],
      "min": [
        1,
        1,
        1,
        1
      ],
      "type": "VEC4"
    },
    {
      "bufferView": 6,
      "componentType": 5123,
      "count": 6,
      "max": [
        3
      ],
      "min": [
        0
      ],
      "type": "SCALAR"
    },
    {
      "bufferView": 7,
      "componentType": 5126,
      "count": 4368,
      "max": [
        2.9546854496002197,
        -3.1991467475891113,
        0.018265247344970703
      ],
      "min": [
        -3.1665382385253906,
        -4.605371475219727,
        -1.0474178791046143
      ],
      "type": "VEC3"
    },
    {
      "bufferView": 8,
      "componentType": 5126,
      "count": 4368,
      "max": [
        0.9996537566184998,
        0.9998250007629395,
        1
      ],
      "min": [
        -0.9990047812461853,
        -0.9998321533203125,
        -1
      ],
      "type": "VEC3"
    },
    {
      "bufferView": 9,
      "componentType": 5126,
      "count": 4368,
      "max": [
        1,
        1
      ],
      "min": [
        0,
        0
      ],
      "type": "VEC2"
    },
    {
      "bufferView": 10,
      "componentType": 5126,
      "count": 4368,
      "max": [
        0,
        0
      ],
      "min": [
        0,
        0
      ],
      "type": "VEC2"
    },
    {
      "bufferView": 11,
      "componentType": 5126,
      "count": 4368,
      "max": [
        0,
        0,
        0,
        0
      ],
      "min": [
        0,
        0,
        0,
        0
      ],
      "type": "VEC4"
    },
    {
      "bufferView": 12,
      "componentType": 5126,
      "count": 4368,
      "max": [
        1,
        1,
        1,
        1
      ],
      "min": [
        1,
        1,
        1,
        1
      ],
      "type": "VEC4"
    },
    {
      "bufferView": 13,
      "componentType": 5123,
      "count": 6624,
      "max": [
        4367
      ],
      "min": [
        0
      ],
      "type": "SCALAR"
    },
    {
      "bufferView": 14,
      "componentType": 5126,
      "count": 1214,
      "max": [
        2.6697447299957275,
        2.332413911819458,
        2.6776204109191895
      ],
      "min": [
        -2.693371534347534,
        -0.042682863771915436,
        -2.6776204109191895
      ],
      "type": "VEC3"
    },
    {
      "bufferView": 15,
      "componentType": 5126,
      "count": 1214,
      "max": [
        0.9922824501991272,
        1,
        0.9810801148414612
      ],
      "min": [
        -0.9807839393615723,
        -1,
        -0.9992799758911133
      ],
      "type": "VEC3"
    },
    {
      "bufferView": 16,
      "componentType": 5126,
      "count": 1214,
      "max": [
        0,
        1
      ],
      "min": [
        0,
        1
      ],
      "type": "VEC2"
    },
    {
      "bufferView": 17,
      "componentType": 5126,
      "count": 1214,
      "max": [
        0,
        0
      ],
      "min": [
        0,
        0
      ],
      "type": "VEC2"
    },
    {
      "bufferView": 18,
      "componentType": 5126,
      "count": 1214,
      "max": [
        0,
        0,
        0,
        0
      ],
      "min": [
        0,
        0,
        0,
        0
      ],
      "type": "VEC4"
    },
    {
      "bufferView": 19,
      "componentType": 5126,
      "count": 1214,
      "max": [
        1,
        1,
        1,
        1
      ],
      "min": [
        1,
        1,
        1,
        1
      ],
      "type": "VEC4"
    },
    {
      "bufferView": 20,
      "componentType": 5123,
      "count": 2808,
      "max": [
        1213
      ],
      "min": [
        0
      ],
      "type": "SCALAR"
    },
    {
      "bufferView": 21,
      "componentType": 5126,
      "count": 251,
      "max": [
        10.416666984558105
      ],
      "min": [
        0
      ],
      "type": "SCALAR"
    },
    {
      "bufferView": 22,
      "componentType": 5126,
      "count": 251,
      "max": [
        0,
        0.9998223781585693,
        0,
        1
      ],
      "min": [
        0,
        -1,
        0,
        1.6292068494294654e-7
      ],
      "type": "VEC4"
    }
  ],
  "materials": [
    {
      "pbrMetallicRoughness": {
        "baseColorFactor": [
          0.8004080057144165,
          0.5754438042640686,
          0.030265873298048973,
          1
        ],
        "metallicFactor": 0.00917428731918335,
        "roughnessFactor": 0.29357796907424927
      },
      "doubleSided": true,
      "name": "Material"
    },
    {
      "pbrMetallicRoughness": {
        "baseColorFactor": [
          0,
          0,
          0,
          1
        ],
        "metallicFactor": 1,
        "roughnessFactor": 1
      },
      "emissiveFactor": [
        0.0069954101845983935,
        0.0033465357620980074,
        0.006512090790025684
      ],
      "doubleSided": true,
      "name": "luz",
      "extensions": {
        "KHR_materials_emissive_strength": {
          "emissiveStrength": 21.24
        }
      }
    },
    {
      "pbrMetallicRoughness": {
        "baseColorFactor": [
          0.520995557308197,
          0,
          1,
          1
        ],
        "metallicFactor": 0,
        "roughnessFactor": 0.4000000059604645
      },
      "doubleSided": true,
      "name": "Material.004"
    }
  ],
  "meshes": [
    {
      "primitives": [
        {
          "mode": 4,
          "attributes": {
            "POSITION": 0,
            "NORMAL": 1,
            "TEXCOORD_0": 2,
            "TEXCOORD_2": 3,
            "TANGENT": 4,
            "COLOR_0": 5
          },
          "indices": 6,
          "material": 0
        }
      ]
    },
    {
      "primitives": [
        {
          "mode": 4,
          "attributes": {
            "POSITION": 7,
            "NORMAL": 8,
            "TEXCOORD_0": 9,
            "TEXCOORD_2": 10,
            "TANGENT": 11,
            "COLOR_0": 12
          },
          "indices": 13,
          "material": 1
        }
      ]
    },
    {
      "primitives": [
        {
          "mode": 4,
          "attributes": {
            "POSITION": 14,
            "NORMAL": 15,
            "TEXCOORD_0": 16,
            "TEXCOORD_2": 17,
            "TANGENT": 18,
            "COLOR_0": 19
          },
          "indices": 20,
          "material": 2
        }
      ]
    }
  ],
  "extensions": {
    "KHR_lights_punctual": {
      "lights": [
        {
          "name": "Sun",
          "color": [
            1,
            0.8498965501785278,
            0.8726204633712769
          ],
          "intensity": 100,
          "type": "directional"
        },
        {
          "name": "Point",
          "color": [
            1,
            1,
            1
          ],
          "intensity": 543.5141306588226,
          "type": "point"
        },
        {
          "name": "Spot",
          "color": [
            1,
            1,
            1
          ],
          "intensity": 300,
          "type": "spot",
          "spot": {
            "innerConeAngle": 0.3337942263919169,
            "outerConeAngle": 0.39269909262657166
          }
        }
      ]
    }
  },
  "animations": [
    {
      "name": "TazaMove",
      "samplers": [
        {
          "input": 21,
          "output": 22,
          "interpolation": "LINEAR"
        }
      ],
      "channels": [
        {
          "sampler": 0,
          "target": {
            "node": 10,
            "path": "rotation"
          }
        }
      ]
    }
  ],
  "extensionsUsed": [
    "KHR_lights_punctual",
    "KHR_materials_emissive_strength"
  ]
}