{
  "asset": {
    "version": "2.0",
    "generator": "THREE.GLTFExporter r164"
  },
  "scenes": [
    {
      "name": "Scene",
      "nodes": [
        5
      ]
    }
  ],
  "scene": 0,
  "nodes": [
    {
      "rotation": [
        -0.12461049956324963,
        0.07406803208317436,
        -0.5055525056327613,
        0.8505309216036019
      ],
      "translation": [
        -0.003154151141643524,
        0.0044888900592923164,
        0
      ],
      "name": "cubo",
      "extras": {
        "name": "cubo"
      },
      "mesh": 0
    },
    {
      "rotation": [
        -0.3718900193488129,
        0.3726177297478861,
        0.8338067833844941,
        0.16619299599508178
      ],
      "translation": [
        3.969141721725464,
        0.12184399366378784,
        -2.7606377601623535
      ],
      "scale": [
        1.2866371870040894,
        1.2866371870040894,
        1.2866371870040894
      ],
      "name": "icoEsfera",
      "extras": {
        "name": "icoEsfera"
      },
      "mesh": 1
    },
    {
      "rotation": [
        0.37805698776966756,
        0.3399925031151945,
        -0.8476336834269291,
        0.15164161291563372
      ],
      "translation": [
        -3.5440866947174072,
        -0.9704822301864624,
        1.7953615188598633
      ],
      "name": "trianguloRecto",
      "extras": {
        "name": "trianguloRecto"
      },
      "mesh": 2
    },
    {
      "rotation": [
        0.2269773659675523,
        0.7462387723876263,
        -0.5264546677130273,
        0.3383111966845267
      ],
      "translation": [
        0.005425930023193359,
        1.4015324115753174,
        -4.14850378036499
      ],
      "name": "rombo",
      "extras": {
        "name": "rombo"
      },
      "mesh": 3
    },
    {
      "rotation": [
        0.2845634525659905,
        0.6534647701479861,
        -0.6380137173206322,
        0.2914548755695851
      ],
      "translation": [
        1.1104357242584229,
        -2.221771478652954,
        4.123332500457764
      ],
      "name": "prisma",
      "extras": {
        "name": "prisma"
      },
      "mesh": 4
    },
    {
      "name": "geometric.glb",
      "children": [
        0,
        1,
        2,
        3,
        4
      ]
    }
  ],
  "bufferViews": [
    {
      "buffer": 0,
      "byteOffset": 0,
      "byteLength": 288,
      "target": 34962,
      "byteStride": 12
    },
    {
      "buffer": 0,
      "byteOffset": 288,
      "byteLength": 288,
      "target": 34962,
      "byteStride": 12
    },
    {
      "buffer": 0,
      "byteOffset": 576,
      "byteLength": 192,
      "target": 34962,
      "byteStride": 8
    },
    {
      "buffer": 0,
      "byteOffset": 768,
      "byteLength": 72,
      "target": 34963
    },
    {
      "buffer": 0,
      "byteOffset": 840,
      "byteLength": 720,
      "target": 34962,
      "byteStride": 12
    },
    {
      "buffer": 0,
      "byteOffset": 1560,
      "byteLength": 720,
      "target": 34962,
      "byteStride": 12
    },
    {
      "buffer": 0,
      "byteOffset": 2280,
      "byteLength": 480,
      "target": 34962,
      "byteStride": 8
    },
    {
      "buffer": 0,
      "byteOffset": 2760,
      "byteLength": 120,
      "target": 34963
    },
    {
      "buffer": 0,
      "byteOffset": 2880,
      "byteLength": 216,
      "target": 34962,
      "byteStride": 12
    },
    {
      "buffer": 0,
      "byteOffset": 3096,
      "byteLength": 216,
      "target": 34962,
      "byteStride": 12
    },
    {
      "buffer": 0,
      "byteOffset": 3312,
      "byteLength": 144,
      "target": 34962,
      "byteStride": 8
    },
    {
      "buffer": 0,
      "byteOffset": 3456,
      "byteLength": 48,
      "target": 34963
    },
    {
      "buffer": 0,
      "byteOffset": 3504,
      "byteLength": 360,
      "target": 34962,
      "byteStride": 12
    },
    {
      "buffer": 0,
      "byteOffset": 3864,
      "byteLength": 360,
      "target": 34962,
      "byteStride": 12
    },
    {
      "buffer": 0,
      "byteOffset": 4224,
      "byteLength": 240,
      "target": 34962,
      "byteStride": 8
    },
    {
      "buffer": 0,
      "byteOffset": 4464,
      "byteLength": 96,
      "target": 34963
    },
    {
      "buffer": 0,
      "byteOffset": 4560,
      "byteLength": 336,
      "target": 34962,
      "byteStride": 12
    },
    {
      "buffer": 0,
      "byteOffset": 4896,
      "byteLength": 336,
      "target": 34962,
      "byteStride": 12
    },
    {
      "buffer": 0,
      "byteOffset": 5232,
      "byteLength": 224,
      "target": 34962,
      "byteStride": 8
    },
    {
      "buffer": 0,
      "byteOffset": 5456,
      "byteLength": 60,
      "target": 34963
    },
    {
      "buffer": 0,
      "byteOffset": 5516,
      "byteLength": 404
    },
    {
      "buffer": 0,
      "byteOffset": 5920,
      "byteLength": 1616
    },
    {
      "buffer": 0,
      "byteOffset": 7536,
      "byteLength": 404
    },
    {
      "buffer": 0,
      "byteOffset": 7940,
      "byteLength": 1616
    },
    {
      "buffer": 0,
      "byteOffset": 9556,
      "byteLength": 404
    },
    {
      "buffer": 0,
      "byteOffset": 9960,
      "byteLength": 1616
    },
    {
      "buffer": 0,
      "byteOffset": 11576,
      "byteLength": 404
    },
    {
      "buffer": 0,
      "byteOffset": 11980,
      "byteLength": 1616
    },
    {
      "buffer": 0,
      "byteOffset": 13596,
      "byteLength": 404
    },
    {
      "buffer": 0,
      "byteOffset": 14000,
      "byteLength": 1616
    }
  ],
  "buffers": [
    {
      "byteLength": 15616,
      "uri": "data:application/octet-stream;base64,"
    }
  ],
  "accessors": [
    {
      "bufferView": 0,
      "componentType": 5126,
      "count": 24,
      "max": [
        1,
        1,
        1
      ],
      "min": [
        -1,
        -1,
        -1
      ],
      "type": "VEC3"
    },
    {
      "bufferView": 1,
      "componentType": 5126,
      "count": 24,
      "max": [
        1,
        1,
        1
      ],
      "min": [
        -1,
        -1,
        -1
      ],
      "type": "VEC3"
    },
    {
      "bufferView": 2,
      "componentType": 5126,
      "count": 24,
      "max": [
        0.875,
        1
      ],
      "min": [
        0.125,
        0
      ],
      "type": "VEC2"
    },
    {
      "bufferView": 3,
      "componentType": 5123,
      "count": 36,
      "max": [
        23
      ],
      "min": [
        0
      ],
      "type": "SCALAR"
    },
    {
      "bufferView": 4,
      "componentType": 5126,
      "count": 60,
      "max": [
        0.8854807019233704,
        0.9900000095367432,
        0.842133641242981
      ],
      "min": [
        -0.8854807019233704,
        -0.9900000095367432,
        -0.842133641242981
      ],
      "type": "VEC3"
    },
    {
      "bufferView": 5,
      "componentType": 5126,
      "count": 60,
      "max": [
        0.9822439551353455,
        0.7946866750717163,
        0.9341834187507629
      ],
      "min": [
        -0.9822439551353455,
        -0.7946866750717163,
        -0.9341834187507629
      ],
      "type": "VEC3"
    },
    {
      "bufferView": 6,
      "componentType": 5126,
      "count": 60,
      "max": [
        1,
        1
      ],
      "min": [
        0,
        0.5276179909706116
      ],
      "type": "VEC2"
    },
    {
      "bufferView": 7,
      "componentType": 5123,
      "count": 60,
      "max": [
        59
      ],
      "min": [
        0
      ],
      "type": "SCALAR"
    },
    {
      "bufferView": 8,
      "componentType": 5126,
      "count": 18,
      "max": [
        1,
        1.9889585971832275,
        1
      ],
      "min": [
        -1,
        0,
        -1.0000001192092896
      ],
      "type": "VEC3"
    },
    {
      "bufferView": 9,
      "componentType": 5126,
      "count": 18,
      "max": [
        0.7071068286895752,
        1,
        0.7071068286895752
      ],
      "min": [
        -1,
        -1,
        -1
      ],
      "type": "VEC3"
    },
    {
      "bufferView": 10,
      "componentType": 5126,
      "count": 18,
      "max": [
        0,
        1
      ],
      "min": [
        0,
        1
      ],
      "type": "VEC2"
    },
    {
      "bufferView": 11,
      "componentType": 5123,
      "count": 24,
      "max": [
        17
      ],
      "min": [
        0
      ],
      "type": "SCALAR"
    },
    {
      "bufferView": 12,
      "componentType": 5126,
      "count": 30,
      "max": [
        1.0323266983032227,
        1.4920488595962524,
        0.80901700258255
      ],
      "min": [
        -0.9510565400123596,
        0,
        -1.0446758270263672
      ],
      "type": "VEC3"
    },
    {
      "bufferView": 13,
      "componentType": 5126,
      "count": 30,
      "max": [
        0.9493048191070557,
        1,
        0.8089794516563416
      ],
      "min": [
        -0.9502085447311401,
        -1,
        -0.9995529055595398
      ],
      "type": "VEC3"
    },
    {
      "bufferView": 14,
      "componentType": 5126,
      "count": 30,
      "max": [
        0,
        1
      ],
      "min": [
        0,
        1
      ],
      "type": "VEC2"
    },
    {
      "bufferView": 15,
      "componentType": 5123,
      "count": 48,
      "max": [
        29
      ],
      "min": [
        0
      ],
      "type": "SCALAR"
    },
    {
      "bufferView": 16,
      "componentType": 5126,
      "count": 28,
      "max": [
        1,
        1.3249993324279785,
        1
      ],
      "min": [
        -1,
        -1.1697843074798584,
        -1
      ],
      "type": "VEC3"
    },
    {
      "bufferView": 17,
      "componentType": 5126,
      "count": 28,
      "max": [
        0.7924008965492249,
        1,
        0.7996999025344849
      ],
      "min": [
        -0.8040140271186829,
        -0.610000729560852,
        -0.7966879606246948
      ],
      "type": "VEC3"
    },
    {
      "bufferView": 18,
      "componentType": 5126,
      "count": 28,
      "max": [
        1,
        1
      ],
      "min": [
        0,
        0
      ],
      "type": "VEC2"
    },
    {
      "bufferView": 19,
      "componentType": 5123,
      "count": 30,
      "max": [
        27
      ],
      "min": [
        0
      ],
      "type": "SCALAR"
    },
    {
      "bufferView": 20,
      "componentType": 5126,
      "count": 101,
      "max": [
        4.166666507720947
      ],
      "min": [
        0
      ],
      "type": "SCALAR"
    },
    {
      "bufferView": 21,
      "componentType": 5126,
      "count": 101,
      "max": [
        0.8596107959747314,
        0.5103824734687805,
        -3.8575610261659676e-8,
        0.8596107959747314
      ],
      "min": [
        -0.8586567044258118,
        -0.5109495520591736,
        -0.5109495520591736,
        6.489879922355613e-8
      ],
      "type": "VEC4"
    },
    {
      "bufferView": 22,
      "componentType": 5126,
      "count": 101,
      "max": [
        4.166666507720947
      ],
      "min": [
        0
      ],
      "type": "SCALAR"
    },
    {
      "bufferView": 23,
      "componentType": 5126,
      "count": 101,
      "max": [
        0.4073355793952942,
        0.9132785797119141,
        0.9122649431228638,
        0.4073355793952942
      ],
      "min": [
        -0.40688356757164,
        6.895060522538188e-8,
        -0.9132785797119141,
        3.0752978830150823e-8
      ],
      "type": "VEC4"
    },
    {
      "bufferView": 24,
      "componentType": 5126,
      "count": 101,
      "max": [
        4.166666507720947
      ],
      "min": [
        0
      ],
      "type": "SCALAR"
    },
    {
      "bufferView": 25,
      "componentType": 5126,
      "count": 101,
      "max": [
        0.4073355793952942,
        0.9132785797119141,
        0.9122649431228638,
        0.4073355793952942
      ],
      "min": [
        -0.40688356757164,
        6.895060522538188e-8,
        -0.9132785797119141,
        3.0752978830150823e-8
      ],
      "type": "VEC4"
    },
    {
      "bufferView": 26,
      "componentType": 5126,
      "count": 101,
      "max": [
        4.166666507720947
      ],
      "min": [
        0
      ],
      "type": "SCALAR"
    },
    {
      "bufferView": 27,
      "componentType": 5126,
      "count": 101,
      "max": [
        0.4073200225830078,
        0.9132506847381592,
        0.9120627641677856,
        0.40739598870277405
      ],
      "min": [
        -0.4072434604167938,
        -0.0035545590799301863,
        -0.91324383020401,
        0.007969786413013935
      ],
      "type": "VEC4"
    },
    {
      "bufferView": 28,
      "componentType": 5126,
      "count": 101,
      "max": [
        4.166666507720947
      ],
      "min": [
        0
      ],
      "type": "SCALAR"
    },
    {
      "bufferView": 29,
      "componentType": 5126,
      "count": 101,
      "max": [
        0.4073355793952942,
        0.9132785797119141,
        0.9122649431228638,
        0.4073355793952942
      ],
      "min": [
        -0.40688356757164,
        6.895060522538188e-8,
        -0.9132785797119141,
        3.0752978830150823e-8
      ],
      "type": "VEC4"
    }
  ],
  "materials": [
    {
      "pbrMetallicRoughness": {
        "baseColorFactor": [
          0.025547385215759277,
          0.17642778158187866,
          0.8001565933227539,
          1
        ],
        "metallicFactor": 0,
        "roughnessFactor": 0.5
      },
      "doubleSided": true,
      "name": "cubo"
    },
    {
      "pbrMetallicRoughness": {
        "baseColorFactor": [
          0.8002588152885437,
          0.1486356556415558,
          0.13999494910240173,
          1
        ],
        "metallicFactor": 0,
        "roughnessFactor": 0.5
      },
      "doubleSided": true,
      "name": "rombo"
    },
    {
      "pbrMetallicRoughness": {
        "baseColorFactor": [
          0.031322576105594635,
          0.8004403114318848,
          0,
          1
        ],
        "metallicFactor": 0,
        "roughnessFactor": 0.5
      },
      "doubleSided": true,
      "name": "triRectangulo"
    },
    {
      "pbrMetallicRoughness": {
        "baseColorFactor": [
          0.8003076910972595,
          0.009591294452548027,
          0.36421912908554077,
          1
        ],
        "metallicFactor": 0,
        "roughnessFactor": 0.5
      },
      "doubleSided": true,
      "name": "rombo.001"
    },
    {
      "pbrMetallicRoughness": {
        "baseColorFactor": [
          0.13152344524860382,
          0.8001810312271118,
          0.40052658319473267,
          1
        ],
        "metallicFactor": 0,
        "roughnessFactor": 0.5
      },
      "doubleSided": true,
      "name": "prisma"
    }
  ],
  "meshes": [
    {
      "primitives": [
        {
          "mode": 4,
          "attributes": {
            "POSITION": 0,
            "NORMAL": 1,
            "TEXCOORD_0": 2
          },
          "indices": 3,
          "material": 0
        }
      ]
    },
    {
      "primitives": [
        {
          "mode": 4,
          "attributes": {
            "POSITION": 4,
            "NORMAL": 5,
            "TEXCOORD_0": 6
          },
          "indices": 7,
          "material": 1
        }
      ]
    },
    {
      "primitives": [
        {
          "mode": 4,
          "attributes": {
            "POSITION": 8,
            "NORMAL": 9,
            "TEXCOORD_0": 10
          },
          "indices": 11,
          "material": 2
        }
      ]
    },
    {
      "primitives": [
        {
          "mode": 4,
          "attributes": {
            "POSITION": 12,
            "NORMAL": 13,
            "TEXCOORD_0": 14
          },
          "indices": 15,
          "material": 3
        }
      ]
    },
    {
      "primitives": [
        {
          "mode": 4,
          "attributes": {
            "POSITION": 16,
            "NORMAL": 17,
            "TEXCOORD_0": 18
          },
          "indices": 19,
          "material": 4
        }
      ]
    }
  ],
  "animations": [
    {
      "name": "animacionCubo",
      "samplers": [
        {
          "input": 20,
          "output": 21,
          "interpolation": "LINEAR"
        }
      ],
      "channels": [
        {
          "sampler": 0,
          "target": {
            "node": 0,
            "path": "rotation"
          }
        }
      ]
    },
    {
      "name": "animacionCubo",
      "samplers": [
        {
          "input": 22,
          "output": 23,
          "interpolation": "LINEAR"
        }
      ],
      "channels": [
        {
          "sampler": 0,
          "target": {
            "node": 1,
            "path": "rotation"
          }
        }
      ]
    },
    {
      "name": "animacionCubo",
      "samplers": [
        {
          "input": 24,
          "output": 25,
          "interpolation": "LINEAR"
        }
      ],
      "channels": [
        {
          "sampler": 0,
          "target": {
            "node": 2,
            "path": "rotation"
          }
        }
      ]
    },
    {
      "name": "animacionCubo",
      "samplers": [
        {
          "input": 26,
          "output": 27,
          "interpolation": "LINEAR"
        }
      ],
      "channels": [
        {
          "sampler": 0,
          "target": {
            "node": 3,
            "path": "rotation"
          }
        }
      ]
    },
    {
      "name": "animacionCubo",
      "samplers": [
        {
          "input": 28,
          "output": 29,
          "interpolation": "LINEAR"
        }
      ],
      "channels": [
        {
          "sampler": 0,
          "target": {
            "node": 4,
            "path": "rotation"
          }
        }
      ]
    }
  ]
}