{
  "asset": {
    "version": "2.0",
    "generator": "THREE.GLTFExporter r164"
  },
  "scenes": [
    {
      "name": "Scene",
      "nodes": [
        2,
        3
      ]
    }
  ],
  "scene": 0,
  "nodes": [
    {
      "rotation": [
        0.7069873809814453,
        -0.004253382794559002,
        0.0010827963706105947,
        0.7072125673294067
      ],
      "translation": [
        0.007082715630531311,
        0.7561677098274231,
        -0.01609441637992859
      ],
      "scale": [
        1.6916050910949707,
        0.4449825882911682,
        1.6916882991790771
      ],
      "name": "relieve",
      "extras": {
        "name": "relieve"
      },
      "mesh": 1
    },
    {
      "rotation": [
        0,
        0,
        0.6435102820396423,
        0.7654376029968262
      ],
      "translation": [
        0.05370120331645012,
        2.1440508365631104,
        0.006122289225459099
      ],
      "scale": [
        0.9312132000923157,
        0.9496589303016663,
        1.0124962329864502
      ],
      "name": "granocafe",
      "extras": {
        "name": "granocafe"
      },
      "mesh": 0,
      "children": [
        0
      ]
    },
    {
      "name": "grano.glb",
      "children": [
        1
      ]
    },
    {
      "translation": [
        -10.062567704179962,
        4.278795149359938,
        -0.5727123015264963
      ],
      "name": "DirectionalLight",
      "extensions": {
        "KHR_lights_punctual": {
          "light": 0
        }
      }
    }
  ],
  "bufferViews": [
    {
      "buffer": 0,
      "byteOffset": 0,
      "byteLength": 140868,
      "target": 34962,
      "byteStride": 12
    },
    {
      "buffer": 0,
      "byteOffset": 140868,
      "byteLength": 140868,
      "target": 34962,
      "byteStride": 12
    },
    {
      "buffer": 0,
      "byteOffset": 281736,
      "byteLength": 93912,
      "target": 34962,
      "byteStride": 8
    },
    {
      "buffer": 0,
      "byteOffset": 375648,
      "byteLength": 124652,
      "target": 34963
    },
    {
      "buffer": 0,
      "byteOffset": 500300,
      "byteLength": 100620,
      "target": 34962,
      "byteStride": 12
    },
    {
      "buffer": 0,
      "byteOffset": 600920,
      "byteLength": 100620,
      "target": 34962,
      "byteStride": 12
    },
    {
      "buffer": 0,
      "byteOffset": 701540,
      "byteLength": 98304,
      "target": 34963
    },
    {
      "buffer": 0,
      "byteOffset": 799844,
      "byteLength": 800
    },
    {
      "buffer": 0,
      "byteOffset": 800644,
      "byteLength": 3200
    }
  ],
  "buffers": [
    {
      "byteLength": 803844,
      "uri": "data:application/octet-stream;base64,"
    }
  ],
  "accessors": [
    {
      "bufferView": 0,
      "componentType": 5126,
      "count": 11739,
      "max": [
        2.2701408863067627,
        0.9397393465042114,
        1.5105340480804443
      ],
      "min": [
        -2.196031332015991,
        -0.7989954948425293,
        -1.417332410812378
      ],
      "type": "VEC3"
    },
    {
      "bufferView": 1,
      "componentType": 5126,
      "count": 11739,
      "max": [
        0.9882519841194153,
        0.9999018311500549,
        0.9999984502792358
      ],
      "min": [
        -0.9984866380691528,
        -0.999925434589386,
        -0.9999977350234985
      ],
      "type": "VEC3"
    },
    {
      "bufferView": 2,
      "componentType": 5126,
      "count": 11739,
      "max": [
        0.9989989995956421,
        1
      ],
      "min": [
        0,
        0.0010010004043579102
      ],
      "type": "VEC2"
    },
    {
      "bufferView": 3,
      "componentType": 5123,
      "count": 62325,
      "max": [
        11738
      ],
      "min": [
        0
      ],
      "type": "SCALAR"
    },
    {
      "bufferView": 4,
      "componentType": 5126,
      "count": 8385,
      "max": [
        0.9656540751457214,
        0.075941301882267,
        0.09009329229593277
      ],
      "min": [
        -0.9595695734024048,
        -0.08877518028020859,
        -0.06082277372479439
      ],
      "type": "VEC3"
    },
    {
      "bufferView": 5,
      "componentType": 5126,
      "count": 8385,
      "max": [
        0.9943273067474365,
        0.9999579191207886,
        0.9999996423721313
      ],
      "min": [
        -0.9932116270065308,
        -0.9998146891593933,
        -0.9999679327011108
      ],
      "type": "VEC3"
    },
    {
      "bufferView": 6,
      "componentType": 5123,
      "count": 49152,
      "max": [
        8384
      ],
      "min": [
        0
      ],
      "type": "SCALAR"
    },
    {
      "bufferView": 7,
      "componentType": 5126,
      "count": 200,
      "max": [
        8.333333015441895
      ],
      "min": [
        0.0416666679084301
      ],
      "type": "SCALAR"
    },
    {
      "bufferView": 8,
      "componentType": 5126,
      "count": 200,
      "max": [
        0.6434651017189026,
        0.7653838992118835,
        0.6435102820396423,
        0.7654374837875366
      ],
      "min": [
        -0.6434651017189026,
        -0.7653838992118835,
        0.007618792820721865,
        0.009062343277037144
      ],
      "type": "VEC4"
    }
  ],
  "materials": [
    {
      "pbrMetallicRoughness": {
        "baseColorFactor": [
          0.6320752501487732,
          0.30642399191856384,
          0.22361168265342712,
          1
        ],
        "metallicFactor": 1,
        "roughnessFactor": 1
      },
      "doubleSided": true,
      "name": "grain2"
    },
    {
      "pbrMetallicRoughness": {
        "baseColorFactor": [
          0.4339619278907776,
          0.21968460083007812,
          0.13510142266750336,
          1
        ],
        "metallicFactor": 1,
        "roughnessFactor": 1
      },
      "doubleSided": true,
      "name": "interieur2"
    }
  ],
  "meshes": [
    {
      "primitives": [
        {
          "mode": 4,
          "attributes": {
            "POSITION": 0,
            "NORMAL": 1,
            "TEXCOORD_0": 2
          },
          "indices": 3,
          "material": 0
        }
      ]
    },
    {
      "primitives": [
        {
          "mode": 4,
          "attributes": {
            "POSITION": 4,
            "NORMAL": 5
          },
          "indices": 6,
          "material": 1
        }
      ]
    }
  ],
  "extensions": {
    "KHR_lights_punctual": {
      "lights": [
        {
          "name": "DirectionalLight",
          "color": [
            1,
            1,
            1
          ],
          "intensity": 1,
          "type": "directional"
        }
      ]
    }
  },
  "animations": [
    {
      "name": "GranoRotation",
      "samplers": [
        {
          "input": 7,
          "output": 8,
          "interpolation": "LINEAR"
        }
      ],
      "channels": [
        {
          "sampler": 0,
          "target": {
            "node": 1,
            "path": "rotation"
          }
        }
      ]
    }
  ],
  "extensionsUsed": [
    "KHR_lights_punctual"
  ]
}