{
  "asset": {
    "version": "2.0",
    "generator": "THREE.GLTFExporter r165"
  },
  "scenes": [
    {
      "name": "Scene",
      "nodes": [
        3
      ]
    }
  ],
  "scene": 0,
  "nodes": [
    {
      "matrix": [
        1,
        0,
        0,
        0,
        0,
        -3.029462689596585e-7,
        0.9999999657714298,
        0,
        0,
        -0.9999999657714298,
        -3.029462689596585e-7,
        0,
        -0.14236652851104736,
        0.17229457199573517,
        -0.437081515789032,
        1
      ],
      "name": "Plane",
      "extras": {
        "name": "Plane"
      },
      "mesh": 0
    },
    {
      "matrix": [
        0.1596298933558347,
        0.09145233199909289,
        -0.1292657419816656,
        0,
        -0.04009943973545482,
        0.20091670616839613,
        0.0926249500058764,
        0,
        0.15318354785814384,
        -0.04270616224924288,
        0.15895236716089667,
        0,
        1.6151589155197144,
        0.5823798775672913,
        -0.18041665852069855,
        1
      ],
      "name": "Cube",
      "extras": {
        "name": "Cube"
      },
      "mesh": 1
    },
    {
      "matrix": [
        1,
        0,
        0,
        0,
        0,
        -1.3435885648505064e-7,
        1.0000001343588565,
        0,
        0,
        -1.0000001343588565,
        -1.3435885648505064e-7,
        0,
        -0.550000011920929,
        0,
        0,
        1
      ],
      "name": "Text",
      "extras": {
        "name": "Text"
      },
      "mesh": 2
    },
    {
      "name": "500notfound.glb",
      "children": [
        0,
        1,
        2
      ]
    }
  ],
  "bufferViews": [
    {
      "buffer": 0,
      "byteOffset": 0,
      "byteLength": 216,
      "target": 34962,
      "byteStride": 12
    },
    {
      "buffer": 0,
      "byteOffset": 216,
      "byteLength": 216,
      "target": 34962,
      "byteStride": 12
    },
    {
      "buffer": 0,
      "byteOffset": 432,
      "byteLength": 144,
      "target": 34962,
      "byteStride": 8
    },
    {
      "buffer": 0,
      "byteOffset": 576,
      "byteLength": 48,
      "target": 34963
    },
    {
      "buffer": 0,
      "byteOffset": 624,
      "byteLength": 288,
      "target": 34962,
      "byteStride": 12
    },
    {
      "buffer": 0,
      "byteOffset": 912,
      "byteLength": 288,
      "target": 34962,
      "byteStride": 12
    },
    {
      "buffer": 0,
      "byteOffset": 1200,
      "byteLength": 192,
      "target": 34962,
      "byteStride": 8
    },
    {
      "buffer": 0,
      "byteOffset": 1392,
      "byteLength": 72,
      "target": 34963
    },
    {
      "buffer": 0,
      "byteOffset": 1464,
      "byteLength": 55176,
      "target": 34962,
      "byteStride": 12
    },
    {
      "buffer": 0,
      "byteOffset": 56640,
      "byteLength": 55176,
      "target": 34962,
      "byteStride": 12
    },
    {
      "buffer": 0,
      "byteOffset": 111816,
      "byteLength": 36784,
      "target": 34962,
      "byteStride": 8
    },
    {
      "buffer": 0,
      "byteOffset": 148600,
      "byteLength": 27504,
      "target": 34963
    }
  ],
  "buffers": [
    {
      "byteLength": 176104,
      "uri": "data:application/octet-stream;base64,"
    }
  ],
  "accessors": [
    {
      "bufferView": 0,
      "componentType": 5126,
      "count": 18,
      "max": [
        -0.9047977924346924,
        0.5135238766670227,
        -0.5800915956497192
      ],
      "min": [
        -1.5483344793319702,
        0.09932604432106018,
        -1.1377772092819214
      ],
      "type": "VEC3"
    },
    {
      "bufferView": 1,
      "componentType": 5126,
      "count": 18,
      "max": [
        0.872395396232605,
        0.9632847309112549,
        0.5808941125869751
      ],
      "min": [
        -0.8095917701721191,
        -0.9632847309112549,
        -0.9658302068710327
      ],
      "type": "VEC3"
    },
    {
      "bufferView": 2,
      "componentType": 5126,
      "count": 18,
      "max": [
        0,
        1
      ],
      "min": [
        0,
        1
      ],
      "type": "VEC2"
    },
    {
      "bufferView": 3,
      "componentType": 5123,
      "count": 24,
      "max": [
        17
      ],
      "min": [
        0
      ],
      "type": "SCALAR"
    },
    {
      "bufferView": 4,
      "componentType": 5126,
      "count": 24,
      "max": [
        1,
        1,
        1
      ],
      "min": [
        -1,
        -1,
        -1
      ],
      "type": "VEC3"
    },
    {
      "bufferView": 5,
      "componentType": 5126,
      "count": 24,
      "max": [
        1,
        1,
        1
      ],
      "min": [
        -1,
        -1,
        -1
      ],
      "type": "VEC3"
    },
    {
      "bufferView": 6,
      "componentType": 5126,
      "count": 24,
      "max": [
        0.875,
        1
      ],
      "min": [
        0.125,
        0
      ],
      "type": "VEC2"
    },
    {
      "bufferView": 7,
      "componentType": 5123,
      "count": 36,
      "max": [
        23
      ],
      "min": [
        0
      ],
      "type": "SCALAR"
    },
    {
      "bufferView": 8,
      "componentType": 5126,
      "count": 4598,
      "max": [
        1.5214507579803467,
        0.10000000149011612,
        0.007076514884829521
      ],
      "min": [
        0.02034498006105423,
        -0.10000000149011612,
        -0.6514816284179688
      ],
      "type": "VEC3"
    },
    {
      "bufferView": 9,
      "componentType": 5126,
      "count": 4598,
      "max": [
        1,
        1,
        1
      ],
      "min": [
        -1,
        -1,
        -1
      ],
      "type": "VEC3"
    },
    {
      "bufferView": 10,
      "componentType": 5126,
      "count": 4598,
      "max": [
        1,
        1
      ],
      "min": [
        0,
        0
      ],
      "type": "VEC2"
    },
    {
      "bufferView": 11,
      "componentType": 5123,
      "count": 13752,
      "max": [
        4597
      ],
      "min": [
        0
      ],
      "type": "SCALAR"
    }
  ],
  "materials": [
    {
      "pbrMetallicRoughness": {
        "baseColorFactor": [
          0.8004156351089478,
          0.5721950531005859,
          0.3519495725631714,
          1
        ],
        "metallicFactor": 0,
        "roughnessFactor": 0.5
      },
      "doubleSided": true,
      "name": "Material.003"
    },
    {
      "pbrMetallicRoughness": {
        "baseColorFactor": [
          0.7764673829078674,
          0.19822907447814941,
          0.8002356290817261,
          1
        ],
        "metallicFactor": 0,
        "roughnessFactor": 0.5
      },
      "doubleSided": true,
      "name": "404"
    },
    {
      "pbrMetallicRoughness": {
        "baseColorFactor": [
          0.09517879784107208,
          0.12440555542707443,
          0.8003470301628113,
          1
        ],
        "metallicFactor": 0,
        "roughnessFactor": 0.5
      },
      "doubleSided": true,
      "name": "Material.002"
    }
  ],
  "meshes": [
    {
      "primitives": [
        {
          "mode": 4,
          "attributes": {
            "POSITION": 0,
            "NORMAL": 1,
            "TEXCOORD_0": 2
          },
          "indices": 3,
          "material": 0
        }
      ]
    },
    {
      "primitives": [
        {
          "mode": 4,
          "attributes": {
            "POSITION": 4,
            "NORMAL": 5,
            "TEXCOORD_0": 6
          },
          "indices": 7,
          "material": 1
        }
      ]
    },
    {
      "primitives": [
        {
          "mode": 4,
          "attributes": {
            "POSITION": 8,
            "NORMAL": 9,
            "TEXCOORD_0": 10
          },
          "indices": 11,
          "material": 2
        }
      ]
    }
  ]
}