{
  "asset": {
    "version": "2.0",
    "generator": "THREE.GLTFExporter"
  },
  "scenes": [
    {
      "name": "Scene",
      "nodes": [
        2,
        3
      ]
    }
  ],
  "scene": 0,
  "nodes": [
    {
      "matrix": [
        1.6915399175508372,
        -0.007582886508239116,
        0.012766808163659785,
        0,
        -0.0033577175442291956,
        0.0001492210594582047,
        0.44496988112251185,
        0,
        -0.007587324559407676,
        -1.691671149193101,
        0.0005100499572652966,
        0,
        0.007082856725901365,
        0.7561676502227783,
        -0.016094420105218887,
        1
      ],
      "name": "Plane018",
      "extras": {
        "name": "Plane.018"
      },
      "mesh": 1
    },
    {
      "matrix": [
        0.0008480997038528967,
        0.9173695203045812,
        -0.15997019799193749,
        0,
        -0.004959768334678165,
        0.16314122688394755,
        0.9355278838603985,
        0,
        1.0124821213680524,
        -4.495671225408372e-9,
        0.005367749717150095,
        0,
        0.07507944107055664,
        0.728644609451294,
        -3.072568655014038,
        1
      ],
      "name": "granocafe",
      "extras": {
        "name": "granocafe"
      },
      "mesh": 0,
      "children": [
        0
      ]
    },
    {
      "name": "grano.glb",
      "children": [
        1
      ]
    },
    {
      "matrix": [
        1,
        0,
        0,
        0,
        0,
        1,
        0,
        0,
        0,
        0,
        1,
        0,
        5,
        10,
        7.5,
        1
      ],
      "name": "luz",
      "extensions": {
        "KHR_lights_punctual": {
          "light": 0
        }
      }
    }
  ],
  "bufferViews": [
    {
      "buffer": 0,
      "byteOffset": 0,
      "byteLength": 2976,
      "target": 34962,
      "byteStride": 12
    },
    {
      "buffer": 0,
      "byteOffset": 2976,
      "byteLength": 2976,
      "target": 34962,
      "byteStride": 12
    },
    {
      "buffer": 0,
      "byteOffset": 5952,
      "byteLength": 1984,
      "target": 34962,
      "byteStride": 8
    },
    {
      "buffer": 0,
      "byteOffset": 7936,
      "byteLength": 1984,
      "target": 34962,
      "byteStride": 8
    },
    {
      "buffer": 0,
      "byteOffset": 9920,
      "byteLength": 3968,
      "target": 34962,
      "byteStride": 16
    },
    {
      "buffer": 0,
      "byteOffset": 13888,
      "byteLength": 3968,
      "target": 34962,
      "byteStride": 16
    },
    {
      "buffer": 0,
      "byteOffset": 17856,
      "byteLength": 744,
      "target": 34963
    },
    {
      "buffer": 0,
      "byteOffset": 18600,
      "byteLength": 100620,
      "target": 34962,
      "byteStride": 12
    },
    {
      "buffer": 0,
      "byteOffset": 119220,
      "byteLength": 100620,
      "target": 34962,
      "byteStride": 12
    },
    {
      "buffer": 0,
      "byteOffset": 219840,
      "byteLength": 67080,
      "target": 34962,
      "byteStride": 8
    },
    {
      "buffer": 0,
      "byteOffset": 286920,
      "byteLength": 67080,
      "target": 34962,
      "byteStride": 8
    },
    {
      "buffer": 0,
      "byteOffset": 354000,
      "byteLength": 134160,
      "target": 34962,
      "byteStride": 16
    },
    {
      "buffer": 0,
      "byteOffset": 488160,
      "byteLength": 134160,
      "target": 34962,
      "byteStride": 16
    },
    {
      "buffer": 0,
      "byteOffset": 622320,
      "byteLength": 98304,
      "target": 34963
    }
  ],
  "buffers": [
    {
      "byteLength": 720624,
      "uri": "data:application/octet-stream;base64,"
    }
  ],
  "accessors": [
    {
      "bufferView": 0,
      "componentType": 5126,
      "count": 248,
      "max": [
        2.2701408863067627,
        0.9397393465042114,
        1.5105340480804443
      ],
      "min": [
        -2.196031332015991,
        -0.7989954948425293,
        -1.417332410812378
      ],
      "type": "VEC3"
    },
    {
      "bufferView": 1,
      "componentType": 5126,
      "count": 248,
      "max": [
        0.9489323496818542,
        0.9712653756141663,
        0.9062126278877258
      ],
      "min": [
        -0.8600401282310486,
        -0.977067768573761,
        -0.9120168685913086
      ],
      "type": "VEC3"
    },
    {
      "bufferView": 2,
      "componentType": 5126,
      "count": 248,
      "max": [
        0.9989989995956421,
        0.9989989995956421
      ],
      "min": [
        0.0010010009864345193,
        0.0010010004043579102
      ],
      "type": "VEC2"
    },
    {
      "bufferView": 3,
      "componentType": 5126,
      "count": 248,
      "max": [
        0,
        0
      ],
      "min": [
        0,
        0
      ],
      "type": "VEC2"
    },
    {
      "bufferView": 4,
      "componentType": 5126,
      "count": 248,
      "max": [
        0,
        0,
        0,
        0
      ],
      "min": [
        0,
        0,
        0,
        0
      ],
      "type": "VEC4"
    },
    {
      "bufferView": 5,
      "componentType": 5126,
      "count": 248,
      "max": [
        1,
        1,
        1,
        1
      ],
      "min": [
        1,
        1,
        1,
        1
      ],
      "type": "VEC4"
    },
    {
      "bufferView": 6,
      "componentType": 5123,
      "count": 372,
      "max": [
        247
      ],
      "min": [
        0
      ],
      "type": "SCALAR"
    },
    {
      "bufferView": 7,
      "componentType": 5126,
      "count": 8385,
      "max": [
        0.9656540751457214,
        0.075941301882267,
        0.09009329229593277
      ],
      "min": [
        -0.9595695734024048,
        -0.08877518028020859,
        -0.06082277372479439
      ],
      "type": "VEC3"
    },
    {
      "bufferView": 8,
      "componentType": 5126,
      "count": 8385,
      "max": [
        0.9943273067474365,
        0.9999579191207886,
        0.9999996423721313
      ],
      "min": [
        -0.9932116270065308,
        -0.9998146891593933,
        -0.9999679327011108
      ],
      "type": "VEC3"
    },
    {
      "bufferView": 9,
      "componentType": 5126,
      "count": 8385,
      "max": [
        0,
        0
      ],
      "min": [
        0,
        0
      ],
      "type": "VEC2"
    },
    {
      "bufferView": 10,
      "componentType": 5126,
      "count": 8385,
      "max": [
        0,
        0
      ],
      "min": [
        0,
        0
      ],
      "type": "VEC2"
    },
    {
      "bufferView": 11,
      "componentType": 5126,
      "count": 8385,
      "max": [
        0,
        0,
        0,
        0
      ],
      "min": [
        0,
        0,
        0,
        0
      ],
      "type": "VEC4"
    },
    {
      "bufferView": 12,
      "componentType": 5126,
      "count": 8385,
      "max": [
        1,
        1,
        1,
        1
      ],
      "min": [
        1,
        1,
        1,
        1
      ],
      "type": "VEC4"
    },
    {
      "bufferView": 13,
      "componentType": 5123,
      "count": 49152,
      "max": [
        8384
      ],
      "min": [
        0
      ],
      "type": "SCALAR"
    }
  ],
  "materials": [
    {
      "pbrMetallicRoughness": {
        "baseColorFactor": [
          0.6320752501487732,
          0.30642399191856384,
          0.22361168265342712,
          1
        ],
        "metallicFactor": 1,
        "roughnessFactor": 1
      },
      "doubleSided": true,
      "name": "grain2"
    },
    {
      "pbrMetallicRoughness": {
        "baseColorFactor": [
          0.4339619278907776,
          0.21968460083007812,
          0.13510142266750336,
          1
        ],
        "metallicFactor": 1,
        "roughnessFactor": 1
      },
      "doubleSided": true,
      "name": "interieur2"
    }
  ],
  "meshes": [
    {
      "primitives": [
        {
          "mode": 4,
          "attributes": {
            "POSITION": 0,
            "NORMAL": 1,
            "TEXCOORD_0": 2,
            "TEXCOORD_2": 3,
            "TANGENT": 4,
            "COLOR_0": 5
          },
          "indices": 6,
          "material": 0
        }
      ]
    },
    {
      "primitives": [
        {
          "mode": 4,
          "attributes": {
            "POSITION": 7,
            "NORMAL": 8,
            "TEXCOORD_0": 9,
            "TEXCOORD_2": 10,
            "TANGENT": 11,
            "COLOR_0": 12
          },
          "indices": 13,
          "material": 1
        }
      ]
    }
  ],
  "extensions": {
    "KHR_lights_punctual": {
      "lights": [
        {
          "name": "luz",
          "color": [
            1,
            1,
            1
          ],
          "intensity": 1,
          "type": "directional"
        }
      ]
    }
  },
  "extensionsUsed": [
    "KHR_lights_punctual"
  ]
}